<svg aria-hidden="true" style="position: absolute; width: 0; height: 0; overflow: hidden;"
  version="1.1" xmlns="http://www.w3.org/2000/svg" xmlns:xlink="http://www.w3.org/1999/xlink">
  <defs>
    <symbol id="icon-pin" viewBox="0 0 32 32">
      <path fill="#f9f9f9" style="fill: var(--color1, #f9f9f9)"
        d="M28.1 18.9l-15-15c-2.5-2.6-6.6-2.6-9.2-0.1s-2.6 6.7 0 9.2l0.1 0.1 2.8 2.9 1.4-1.4-2.9-2.9c-1.7-1.7-1.7-4.6 0-6.3s4.6-1.8 6.3-0.1l15 15c1.8 1.7 1.8 4.6 0.1 6.3-1.7 1.8-4.6 1.8-6.3 0.1l-7.5-7.5c-1-1-0.9-2.6 0-3.5 0.479-0.434 1.103-0.675 1.75-0.675s1.271 0.241 1.75 0.675l4.1 4.1 1.4-1.4-4.2-4.2c-0.426-0.403-0.927-0.717-1.475-0.925s-1.131-0.306-1.717-0.287c-0.586 0.019-1.162 0.153-1.695 0.395s-1.014 0.588-1.413 1.017c-1.6 1.7-1.6 4.4 0 6.2l7.5 7.5c2.5 2.6 6.6 2.6 9.2 0.1s2.6-6.7 0-9.3c0 0.1 0 0 0 0z"></path>
    </symbol>
    <symbol id="icon-play" viewBox="0 0 32 32">
      <path fill="#e90516" style="fill: var(--color2, #e90516)"
        d="M28.8 16c0 7.069-5.731 12.8-12.8 12.8s-12.8-5.731-12.8-12.8c0-7.069 5.731-12.8 12.8-12.8s12.8 5.731 12.8 12.8z"></path>
      <path fill="none" stroke="#f9f9f9" style="stroke: var(--color1, #f9f9f9)"
        stroke-linejoin="miter" stroke-linecap="butt" stroke-miterlimit="4" stroke-width="1.28"
        d="M31.36 16c0 8.483-6.877 15.36-15.36 15.36s-15.36-6.877-15.36-15.36c0-8.483 6.877-15.36 15.36-15.36s15.36 6.877 15.36 15.36z"></path>
    </symbol>
    <symbol id="icon-stop" viewBox="0 0 32 32">
      <path fill="none" stroke="#f9f9f9" style="stroke: var(--color1, #f9f9f9)"
        stroke-linejoin="miter" stroke-linecap="butt" stroke-miterlimit="4" stroke-width="1.28"
        d="M31.36 16c0 8.483-6.877 15.36-15.36 15.36s-15.36-6.877-15.36-15.36c0-8.483 6.877-15.36 15.36-15.36s15.36 6.877 15.36 15.36z"></path>
      <path fill="#e90516" style="fill: var(--color2, #e90516)"
        d="M11.52 9.6h8.96c1.060 0 1.92 0.86 1.92 1.92v8.96c0 1.060-0.86 1.92-1.92 1.92h-8.96c-1.060 0-1.92-0.86-1.92-1.92v-8.96c0-1.060 0.86-1.92 1.92-1.92z"></path>
    </symbol>
    <symbol id="icon-eye" viewBox="0 0 32 32">
      <path fill="none" stroke="#f9f9f9" style="stroke: var(--color1, #f9f9f9)"
        stroke-linejoin="round" stroke-linecap="round" stroke-miterlimit="4" stroke-width="2.0800"
        d="M1.333 16c0 0 5.333-10.667 14.667-10.667s14.667 10.667 14.667 10.667-5.333 10.667-14.667 10.667c-9.333 0-14.667-10.667-14.667-10.667z"></path>
      <path fill="none" stroke="#f9f9f9" style="stroke: var(--color1, #f9f9f9)"
        stroke-linejoin="round" stroke-linecap="round" stroke-miterlimit="4" stroke-width="2.0800"
        d="M16 20c2.209 0 4-1.791 4-4s-1.791-4-4-4c-2.209 0-4 1.791-4 4s1.791 4 4 4z"></path>
    </symbol>
    <symbol id="icon-eye-off" viewBox="0 0 32 32">
      <path fill="none" stroke="#f9f9f9" style="stroke: var(--color1, #f9f9f9)"
        stroke-linejoin="round" stroke-linecap="round" stroke-miterlimit="4" stroke-width="2.0800"
        d="M23.92 23.92c-2.279 1.737-5.055 2.7-7.92 2.747-9.333 0-14.667-10.667-14.667-10.667 1.659-3.091 3.959-5.791 6.747-7.92M13.2 5.653c0.918-0.215 1.857-0.322 2.8-0.32 9.333 0 14.667 10.667 14.667 10.667-0.809 1.514-1.775 2.94-2.88 4.253M18.827 18.827c-0.366 0.393-0.808 0.708-1.299 0.927s-1.020 0.336-1.557 0.346c-0.537 0.009-1.071-0.089-1.569-0.291s-0.95-0.501-1.33-0.88c-0.38-0.38-0.679-0.832-0.88-1.33s-0.3-1.032-0.29-1.569c0.009-0.537 0.127-1.067 0.346-1.558s0.534-0.932 0.927-1.298"></path>
      <path fill="none" stroke="#f9f9f9" style="stroke: var(--color1, #f9f9f9)"
        stroke-linejoin="round" stroke-linecap="round" stroke-miterlimit="4" stroke-width="2.0800"
        d="M1.333 1.333l29.333 29.333"></path>
    </symbol>
    <symbol id="icon-check" viewBox="0 0 32 32">
      <path fill="#30b94d" style="fill: var(--color3, #30b94d)"
        d="M15 21.76l-5.4-6.081 1.8-2.026 3.601 4.052 7.199-8.105 1.801 2.027-9 10.133z"></path>
      <path fill="#30b94d" style="fill: var(--color3, #30b94d)"
        d="M0 16c0 8.836 7.164 16 16 16s16-7.164 16-16c0-8.836-7.164-16-16-16s-16 7.164-16 16zM16 29.091c-1.719 0-3.421-0.339-5.010-0.996s-3.031-1.622-4.247-2.838c-1.216-1.216-2.18-2.659-2.838-4.247s-0.997-3.29-0.997-5.010c0-1.719 0.339-3.421 0.997-5.010s1.622-3.031 2.838-4.247c1.216-1.216 2.659-2.18 4.247-2.838s3.291-0.997 5.010-0.997c3.472 0 6.802 1.379 9.257 3.834s3.834 5.785 3.834 9.257c0 3.472-1.379 6.802-3.834 9.257s-5.785 3.834-9.257 3.834z"></path>
    </symbol>
    <symbol id="icon-time" viewBox="0 0 32 32">
      <path fill="none" stroke="currentColor" 
        stroke-linejoin="round" stroke-linecap="round" stroke-miterlimit="4" stroke-width="3.2"
        d="M16 16l-5.697-4.748c-0.846-0.705-1.27-1.058-1.574-1.49-0.27-0.383-0.47-0.811-0.591-1.263-0.137-0.511-0.137-1.061-0.137-2.163v-3.669M16 16l5.697-4.748c0.847-0.705 1.27-1.058 1.574-1.49 0.27-0.383 0.47-0.811 0.592-1.263 0.137-0.511 0.137-1.061 0.137-2.163v-3.669M16 16l-5.697 4.748c-0.846 0.705-1.27 1.058-1.574 1.49-0.27 0.383-0.47 0.811-0.591 1.263-0.137 0.511-0.137 1.061-0.137 2.163v3.669M16 16l5.697 4.748c0.847 0.705 1.27 1.058 1.574 1.49 0.27 0.383 0.47 0.811 0.592 1.263 0.137 0.511 0.137 1.061 0.137 2.163v3.669"></path>
      <path fill="none" stroke="currentColor" 
        stroke-linejoin="round" stroke-linecap="round" stroke-miterlimit="4" stroke-width="3.2"
        d="M5.333 2.667h21.333M5.333 29.333h21.333"></path>
    </symbol>
    <symbol id="icon-login" viewBox="0 0 32 32">
      <path fill="none" stroke="#e3e3e3" style="stroke: var(--color4, #e3e3e3)"
        stroke-linejoin="round" stroke-linecap="round" stroke-miterlimit="4" stroke-width="2.6667"
        d="M18.667 22.667l6.667-6.667-6.667-6.667"></path>
      <path fill="none" stroke="#e3e3e3" style="stroke: var(--color4, #e3e3e3)"
        stroke-linejoin="round" stroke-linecap="round" stroke-miterlimit="4" stroke-width="2.6667"
        d="M25.333 16h-18.667"></path>
    </symbol>
    <symbol id="icon-logo-mob" viewBox="0 0 79 32">
      <path fill="#f9f9f9" style="fill: var(--color1, #f9f9f9)"
        d="M0 20.706v-20.706h24.264c3.299 0 6.512 1.051 9.173 3.001 1.591 1.166 2.861 2.715 3.693 4.503l2.807 6.034c1.084-2.647 2.443-5.173 4.055-7.536l0.139-0.204c0.463-0.679 0.992-1.31 1.58-1.884l1.196-1.168c0.779-0.762 1.704-1.358 2.719-1.755l0.103-0.040c1.608-0.629 3.32-0.951 5.047-0.951h24.283v20.706h-79.059z"></path>
      <path fill="#f9f9f9" style="fill: var(--color1, #f9f9f9)"
        d="M0 24.471h79.059v7.529h-79.059v-7.529z"></path>
    </symbol>
    <symbol id="icon-logo" viewBox="0 0 182 17">
        <path
          d="M0 11V0H12.8903C14.6428 0 16.3497 0.558477 17.7633 1.59437C18.6084 2.21371 19.2833 3.0366 19.7252 3.98661L21.2165 7.19231C21.7922 5.78595 22.5143 4.44406 23.3707 3.18876L23.4446 3.08053C23.6905 2.72004 23.9717 2.38484 24.2838 2.07984L24.919 1.4592C25.333 1.05464 25.8242 0.737558 26.3634 0.526835L26.4183 0.505373C27.2728 0.171398 28.1822 0 29.0996 0H42V11H0Z"
          fill="#F9F9F9" />
        <rect y="13" width="42" height="4" fill="#F9F9F9" />
        <path
          d="M56.764 14.5H54.082L51.544 10.126H49.654V14.5H47.17V1.9H52.21C53.374 1.9 54.364 2.308 55.18 3.124C55.996 3.94 56.404 4.924 56.404 6.076C56.404 6.856 56.182 7.582 55.738 8.254C55.294 8.914 54.706 9.412 53.974 9.748L56.764 14.5ZM52.21 4.222H49.654V7.948H52.21C52.678 7.948 53.08 7.768 53.416 7.408C53.752 7.036 53.92 6.592 53.92 6.076C53.92 5.56 53.752 5.122 53.416 4.762C53.08 4.402 52.678 4.222 52.21 4.222ZM61.0706 9.298V12.124H66.3806V14.5H58.5866V1.9H66.2906V4.276H61.0706V6.958H65.8406V9.298H61.0706ZM79.4849 14.5H76.7849L76.0289 12.232H71.0069L70.2509 14.5H67.5689L71.9789 1.9H75.0569L79.4849 14.5ZM73.5269 4.762L71.7989 9.91H75.2549L73.5269 4.762ZM81.0684 1.9H86.0724C87.8004 1.9 89.2404 2.506 90.3924 3.718C91.5564 4.918 92.1384 6.412 92.1384 8.2C92.1384 9.988 91.5564 11.482 90.3924 12.682C89.2404 13.894 87.8004 14.5 86.0724 14.5H81.0684V1.9ZM83.5524 12.124H86.0724C87.1644 12.124 88.0524 11.764 88.7364 11.044C89.4204 10.3 89.7624 9.352 89.7624 8.2C89.7624 7.036 89.4204 6.094 88.7364 5.374C88.0524 4.642 87.1644 4.276 86.0724 4.276H83.5524V12.124ZM102.702 14.752C100.722 14.752 99.3364 13.954 98.5444 12.358L100.686 11.134C101.082 11.926 101.754 12.322 102.702 12.322C103.35 12.322 103.836 12.172 104.16 11.872C104.496 11.56 104.664 11.128 104.664 10.576V1.9H107.13V10.576C107.13 11.896 106.716 12.922 105.888 13.654C105.072 14.386 104.01 14.752 102.702 14.752ZM120.33 12.862C119.058 14.122 117.51 14.752 115.686 14.752C113.862 14.752 112.314 14.122 111.042 12.862C109.782 11.578 109.152 10.024 109.152 8.2C109.152 6.364 109.782 4.816 111.042 3.556C112.314 2.284 113.862 1.648 115.686 1.648C117.51 1.648 119.058 2.284 120.33 3.556C121.602 4.816 122.238 6.364 122.238 8.2C122.238 10.036 121.602 11.59 120.33 12.862ZM112.788 11.17C113.556 11.938 114.522 12.322 115.686 12.322C116.85 12.322 117.816 11.938 118.584 11.17C119.364 10.39 119.754 9.4 119.754 8.2C119.754 7 119.364 6.01 118.584 5.23C117.804 4.45 116.838 4.06 115.686 4.06C114.534 4.06 113.568 4.45 112.788 5.23C112.008 6.01 111.618 7 111.618 8.2C111.618 9.4 112.008 10.39 112.788 11.17ZM128.954 14.752C127.55 14.752 126.398 14.356 125.498 13.564C124.598 12.772 124.148 11.71 124.148 10.378V1.9H126.614V10.18C126.614 10.852 126.806 11.38 127.19 11.764C127.586 12.136 128.174 12.322 128.954 12.322C129.734 12.322 130.316 12.136 130.7 11.764C131.096 11.38 131.294 10.852 131.294 10.18V1.9H133.778V10.378C133.778 11.71 133.328 12.772 132.428 13.564C131.528 14.356 130.37 14.752 128.954 14.752ZM145.97 14.5H143.288L140.75 10.126H138.86V14.5H136.376V1.9H141.416C142.58 1.9 143.57 2.308 144.386 3.124C145.202 3.94 145.61 4.924 145.61 6.076C145.61 6.856 145.388 7.582 144.944 8.254C144.5 8.914 143.912 9.412 143.18 9.748L145.97 14.5ZM141.416 4.222H138.86V7.948H141.416C141.884 7.948 142.286 7.768 142.622 7.408C142.958 7.036 143.126 6.592 143.126 6.076C143.126 5.56 142.958 5.122 142.622 4.762C142.286 4.402 141.884 4.222 141.416 4.222ZM155.083 9.586V1.9H157.567V14.5H155.677L150.277 6.796V14.5H147.793V1.9H149.683L155.083 9.586ZM162.748 9.298V12.124H168.058V14.5H160.264V1.9H167.968V4.276H162.748V6.958H167.518V9.298H162.748ZM177.333 1.9H180.141L175.821 9.586V14.5H173.355V9.586L169.053 1.9H171.861L174.597 7.156L177.333 1.9Z"
          fill="#F9F9F9" />
    </symbol>
    <symbol id="icon-error" viewBox="0 0 32 32">
      <path fill="#e90516" style="fill: var(--color2, #e90516)"
        d="M16 29c-3.448 0-6.754-1.37-9.192-3.808s-3.808-5.744-3.808-9.192c0-3.448 1.37-6.754 3.808-9.192s5.745-3.808 9.192-3.808c3.448 0 6.754 1.37 9.192 3.808s3.808 5.745 3.808 9.192c0 3.448-1.37 6.754-3.808 9.192s-5.744 3.808-9.192 3.808zM16 32c4.244 0 8.313-1.686 11.314-4.686s4.686-7.070 4.686-11.314c0-4.243-1.686-8.313-4.686-11.314s-7.070-4.686-11.314-4.686c-4.243 0-8.313 1.686-11.314 4.686s-4.686 7.070-4.686 11.314c0 4.244 1.686 8.313 4.686 11.314s7.070 4.686 11.314 4.686zM18 22c0-0.53-0.211-1.039-0.586-1.414s-0.884-0.586-1.414-0.586c-0.53 0-1.039 0.211-1.414 0.586s-0.586 0.884-0.586 1.414c0 0.53 0.211 1.039 0.586 1.414s0.884 0.586 1.414 0.586c0.53 0 1.039-0.211 1.414-0.586s0.586-0.884 0.586-1.414zM17.5 9.5v7c0 0.398-0.158 0.779-0.439 1.061s-0.663 0.439-1.061 0.439c-0.398 0-0.779-0.158-1.061-0.439s-0.439-0.663-0.439-1.061v-7c0-0.398 0.158-0.779 0.439-1.061s0.663-0.439 1.061-0.439c0.398 0 0.779 0.158 1.061 0.439s0.439 0.663 0.439 1.061z"></path>
    </symbol>
    <symbol id="icon-pie" viewBox="0 0 32 32">
      <path fill="none" opacity="0.8" stroke="currentColor" 
        stroke-linejoin="round" stroke-linecap="round" stroke-miterlimit="4" stroke-width="3.2"
        d="M22.933 18.667c0.369 0 0.554 0 0.704 0.082 0.124 0.068 0.238 0.195 0.293 0.324 0.067 0.157 0.050 0.324 0.016 0.659-0.174 1.733-0.771 3.404-1.744 4.861-1.172 1.754-2.838 3.121-4.787 3.929s-4.094 1.019-6.163 0.607-3.97-1.428-5.462-2.919c-1.492-1.492-2.508-3.392-2.919-5.462s-0.2-4.214 0.607-6.163c0.807-1.949 2.175-3.615 3.929-4.787 1.457-0.974 3.128-1.57 4.861-1.744 0.334-0.034 0.502-0.050 0.659 0.016 0.13 0.055 0.257 0.17 0.324 0.293 0.082 0.15 0.082 0.334 0.082 0.704v8.533c0 0.373 0 0.56 0.073 0.703 0.064 0.125 0.166 0.228 0.291 0.291 0.143 0.073 0.329 0.073 0.703 0.073h8.533z"></path>
      <path fill="none" stroke="currentColor" 
        stroke-linejoin="round" stroke-linecap="round" stroke-miterlimit="4" stroke-width="3.2"
        d="M18.667 3.733c0-0.369 0-0.554 0.082-0.704 0.068-0.123 0.195-0.238 0.324-0.293 0.157-0.067 0.324-0.050 0.659-0.016 2.438 0.245 4.73 1.323 6.478 3.071s2.826 4.040 3.071 6.478c0.034 0.334 0.050 0.502-0.016 0.659-0.055 0.13-0.17 0.257-0.293 0.324-0.15 0.082-0.334 0.082-0.704 0.082h-8.533c-0.373 0-0.56 0-0.703-0.073-0.125-0.064-0.228-0.166-0.291-0.291-0.073-0.143-0.073-0.329-0.073-0.703v-8.533z"></path>
    </symbol>
    <symbol
      id="icon-menu"
      viewBox="0 0 28 28"
      fill="#F9F9F9"
    >
      <path
        d="M3.5 14H24.5M3.5 7H24.5M10.5 21H24.5"
        stroke="#F9F9F9"
        stroke-width="2"
        stroke-linecap="round"
        stroke-linejoin="round"
      />
    </symbol>
    <symbol
      id="icon-close"
      viewBox="0 0 28 28"
      fill="#F9F9F9"
    >
      <path
        d="M21 7L7 21"
        stroke="#F9F9F9"
        stroke-width="2"
        stroke-linecap="round"
        stroke-linejoin="round"
      />
      <path
        d="M7 7L21 21"
        stroke="#F9F9F9"
        stroke-width="2"
        stroke-linecap="round"
        stroke-linejoin="round"
      />
    </symbol>
  <symbol id="icon-books" viewBox="0 0 40 40">
    <path d="M0 40H40V1.19209e-05H0V40Z" fill="currentColor" />
  </symbol>
  <symbol id="icon-arrow-right" viewBox="0 0 7 12">
    <path d="M0.75 0.75L5.75 5.75L0.75 10.75"
    fill="none"
          stroke="#F9F9F9"
          stroke-width="1.5"
          stroke-linecap="round"
          stroke-linejoin="round"/>
  </symbol>
  <symbol id="icon-arrow-left" viewBox="0 0 7 12">
    <path d="M5.75 10.75L0.75 5.75L5.75 0.75"
    fill="none"
          stroke="#F9F9F9"
          stroke-width="1.5"
          stroke-linecap="round"
          stroke-linejoin="round"/>
  </symbol>
  <symbol id="icon-close" viewBox="0 0 22 22">
  <path d="M16.5 5.5L5.5 16.5"
        stroke="#F9F9F9"
        stroke-width="2"
        stroke-linecap="round"
        stroke-linejoin="round"/>
  <path d="M5.5 5.5L16.5 16.5"
        stroke="#F9F9F9"
        stroke-width="2"
        stroke-linecap="round"
        stroke-linejoin="round"/>
</symbol>
<symbol id="icon-arrow-down" viewBox="0 0 10 6">
  <path d="M0.75 0.75L4.75 4.75L8.75 0.75"
        stroke="currentColor"
        stroke-width="1.5"
        stroke-linecap="round"
        stroke-linejoin="round"/>
</symbol>
  <symbol id="icon-trash" viewBox="0 0 14 14">
    <path d="M1.75 3.5H2.91667H12.25" stroke="currentColor" stroke-linecap="round" stroke-linejoin="round"/>
    <path d="M11.0837 3.5V11.6667C11.0837 11.9761 10.9607 12.2728 10.742 12.4916C10.5232 12.7104 10.2264 12.8333 9.91699 12.8333H4.08366C3.77424 12.8333 3.47749 12.7104 3.2587 12.4916C3.03991 12.2728 2.91699 11.9761 2.91699 11.6667V3.5M4.66699 3.5V2.33333C4.66699 2.02392 4.78991 1.72717 5.0087 1.50838C5.22749 1.28958 5.52424 1.16667 5.83366 1.16667H8.16699C8.47641 1.16667 8.77316 1.28958 8.99195 1.50838C9.21074 1.72717 9.33366 2.02392 9.33366 2.33333V3.5" stroke="currentColor" stroke-linecap="round" stroke-linejoin="round"/>
    <path d="M5.83301 6.41667V9.91667" stroke="currentColor" stroke-linecap="round" stroke-linejoin="round"/>
    <path d="M8.16699 6.41667V9.91667" stroke="currentColor" stroke-linecap="round" stroke-linejoin="round"/>
  </symbol>
  </defs>
</svg>